<?xml version="1.0" encoding="UTF-8"?>
<svg version="1.1" xmlns="http://www.w3.org/2000/svg" width="1000" height="1000">
<path d="M0 0 C4.54905566 0.67735917 7.96712307 1.75068836 12.0625 3.875 C13.06410156 4.38804688 14.06570313 4.90109375 15.09765625 5.4296875 C17.78266911 6.88241317 20.39205676 8.41420226 23 10 C24.15048828 10.65548828 24.15048828 10.65548828 25.32421875 11.32421875 C30.89503584 14.53779753 35.85008054 18.12808071 40.7734375 22.265625 C42.9060581 24.04500681 42.9060581 24.04500681 45.2265625 25.109375 C47 26 47 26 48 28 C48.845625 28.495 49.69125 28.99 50.5625 29.5 C51.366875 29.995 52.17125 30.49 53 31 C53 31.66 53 32.32 53 33 C54.11955078 33.38091797 54.11955078 33.38091797 55.26171875 33.76953125 C58.1713349 35.07699072 59.651756 36.37209222 61.8125 38.6875 C64.44811215 41.43189914 67.10721582 44.02777777 70 46.5 C73.63928998 49.62144635 77.00027194 52.95645591 80.3359375 56.3984375 C81.92422733 58.08628724 81.92422733 58.08628724 84 59 C84.41121094 59.71027344 84.82242187 60.42054688 85.24609375 61.15234375 C87.84725204 65.3756052 91.28018942 68.70813406 94.70507812 72.27148438 C97.35317413 75.07015197 99.39215525 77.45940923 101 81 C101.66 81.33 102.32 81.66 103 82 C103.6837045 83.32467746 104.34964186 84.65863633 105 86 C105.66 86.66 106.32 87.32 107 88 C108.31994049 90.30566528 109.54673259 92.65154838 110.78125 95.00390625 C111.84556708 97.14375629 111.84556708 97.14375629 114 98 C114 98.99 114 99.98 114 101 C114.66 101 115.32 101 116 101 C116.33 102.65 116.66 104.3 117 106 C117.66 106 118.32 106 119 106 C122 111.625 122 111.625 122 115 C122.66 115.33 123.32 115.66 124 116 C126.3106498 119.97431766 127.4574852 123.44287564 128 128 C128.66 128 129.32 128 130 128 C130.50512244 129.60256108 131.00391627 131.20711792 131.5 132.8125 C131.7784375 133.70582031 132.056875 134.59914062 132.34375 135.51953125 C133 138 133 138 133 141 C133.66 141 134.32 141 135 141 C135.70977312 143.76643547 136.33407969 146.53715285 136.90234375 149.3359375 C137.07056641 150.15320313 137.23878906 150.97046875 137.41210938 151.8125 C137.76067532 153.51256885 138.10705169 155.21308819 138.45117188 156.9140625 C139.16018717 160.34321632 139.85685461 163.60753865 141.05859375 166.90234375 C142.48368254 171.59153632 142.75124759 176.3152605 143.125 181.1875 C143.2084668 182.25540771 143.29193359 183.32331543 143.37792969 184.42358398 C144.63010511 201.546444 144.62832349 218.98608672 142 236 C141.67 236.33 141.34 236.66 141 237 C141.020625 237.721875 141.04125 238.44375 141.0625 239.1875 C140.98945268 242.4746293 140.04068249 244.88169599 139 248 C138.49352083 250.28578557 138.01525546 252.57796946 137.5625 254.875 C136.60308311 259.47441564 135.52576641 263.75432089 133.7421875 268.09375 C132.89027995 270.28180728 132.26149801 272.49007448 131.625 274.75 C130.1595172 279.78564835 128.17768376 284.53125973 126.0859375 289.3359375 C125.17678161 291.56631273 124.500924 293.65122302 124 296 C123.34 296 122.68 296 122 296 C121.87625 296.721875 121.7525 297.44375 121.625 298.1875 C121.0095069 300.95721894 120.11555626 303.3970354 119 306 C118.34 306 117.68 306 117 306 C116.79503906 306.61488281 116.59007812 307.22976563 116.37890625 307.86328125 C115.25260417 311.2421875 114.12630208 314.62109375 113 318 C112.34 318 111.68 318 111 318 C110.731875 319.051875 110.46375 320.10375 110.1875 321.1875 C109.11496817 324.63089166 107.96182176 327.01803093 106 330 C105.505 330.86625 105.01 331.7325 104.5 332.625 C103 335 103 335 101.56640625 336.328125 C99.61785344 338.40787713 98.6370037 340.54550302 97.4375 343.125 C95.22096317 347.88951841 95.22096317 347.88951841 93 349 C92.67 349.99 92.34 350.98 92 352 C91.34 352 90.68 352 90 352 C90 352.99 90 353.98 90 355 C89.34 355.33 88.68 355.66 88 356 C87.05453338 357.71665519 87.05453338 357.71665519 86.1875 359.75 C84.36200491 363.58628479 82.09737937 366.07004654 79 369 C78.67 369.99 78.34 370.98 78 372 C76.66666667 373 75.33333333 374 74 375 C73.67 375.99 73.34 376.98 73 378 C72.34 378 71.68 378 71 378 C71 378.66 71 379.32 71 380 C70.34 380 69.68 380 69 380 C68.67708984 381.04800781 68.67708984 381.04800781 68.34765625 382.1171875 C66.65424431 385.73961651 64.19262236 388.29579625 61.4375 391.125 C57.48540296 395.06764174 57.48540296 395.06764174 55 400 C53.3984375 401.578125 53.3984375 401.578125 51.375 403.25 C48.52206549 405.67627944 45.74156534 408.13194857 43.0625 410.75 C42.49660156 411.30171875 41.93070313 411.8534375 41.34765625 412.421875 C39.7671139 414.07266736 39.7671139 414.07266736 39 417 C36.66120226 419.53369755 34.29615228 421.77219056 31.5625 423.875 C28.82883708 426.14193999 26.74570671 428.60014204 24.48828125 431.32421875 C22.54611833 433.51106362 20.31040695 435.21768607 18 437 C17.67 437.66 17.34 438.32 17 439 C16.34 439 15.68 439 15 439 C15 439.66 15 440.32 15 441 C13.42578125 442.55078125 13.42578125 442.55078125 11.3125 444.3125 C8.05461686 447.08284781 4.98569845 449.933607 2 453 C1.154375 453.825 0.30875 454.65 -0.5625 455.5 C-2.99456247 457.89390968 -2.99456247 457.89390968 -4.8125 460.375 C-6.74943819 462.69932583 -8.64563321 464.48469216 -10.9375 466.4375 C-14.40263188 469.39569592 -17.14884184 472.45531689 -20 476 C-21.62918435 477.71019352 -23.30531633 479.35373587 -25 481 C-20.66076607 486.19216499 -16.10027294 491.02782277 -11.29312134 495.78675842 C-10.53662115 496.53987964 -9.78012097 497.29300085 -9.00069654 498.06894392 C-6.47890628 500.5783851 -3.95353767 503.08419419 -1.42822266 505.59008789 C0.38570757 507.39390832 2.19937061 509.19799746 4.01278687 511.00233459 C7.40695465 514.3790237 10.80186732 517.75495771 14.19793768 521.1297332 C20.86611298 527.75621498 27.52740229 534.38958131 34.18618774 541.02549744 C35.23600699 542.07164738 36.28582865 543.1177949 37.33565271 544.16394001 C38.926168 545.7489027 40.51667427 547.33387444 42.10716056 548.91886624 C48.0927798 554.88380239 54.07890511 560.84823019 60.06591797 566.81176758 C60.61279808 567.35650832 61.15967819 567.90124907 61.72313042 568.46249711 C70.60074342 577.30480679 79.48743493 586.13794349 88.37700813 594.96822686 C97.50966986 604.04049137 106.63088944 613.12414783 115.74195826 622.21809763 C121.35990298 627.82469753 126.98685945 633.42193385 132.62568207 639.00753676 C136.94019914 643.28314876 141.23891251 647.57429582 145.53189468 651.87154198 C147.29722511 653.63361579 149.06773536 655.39051719 150.84367371 657.14189911 C153.26148405 659.52776632 155.66024343 661.93127505 158.05502319 664.34022522 C158.76686496 665.03390782 159.47870673 665.72759042 160.21211946 666.4422937 C163.06259424 669.34344716 164.79951178 671.12622722 165.72143269 675.14416599 C164.76343409 678.93646017 163.16458106 680.58761214 160.40205383 683.3531189 C159.90738827 683.85643883 159.41272272 684.35975877 158.90306729 684.87833083 C157.24274733 686.56023225 155.5618279 688.21986851 153.88012695 689.88037109 C152.6850282 691.08196317 151.49121621 692.28483624 150.29859924 693.4888916 C147.05602722 696.75455845 143.79483016 700.00101437 140.52930856 703.2437129 C137.11640229 706.63771933 133.71853557 710.04672557 130.31840515 713.45352173 C124.60637739 719.1718917 118.88215548 724.87783245 113.15063477 730.57666016 C106.52098245 737.1688087 99.91120039 743.78038232 93.31166488 750.40267122 C86.96613271 756.76913812 80.60659005 763.12142974 74.24059105 769.4674263 C71.52988661 772.17013658 68.82425354 774.87777914 66.12255287 777.58948898 C62.94183135 780.78074614 59.74906817 783.95944162 56.54651451 787.12878418 C55.37193561 788.29514154 54.20160121 789.46579093 53.03582764 790.64094925 C51.4460963 792.2420695 49.84184319 793.82704025 48.23286438 795.40878296 C47.33780339 796.30066 46.4427424 797.19253704 45.52055836 798.11144066 C42.6983927 800.22598298 41.43924757 800.45417409 38 800 C37.67 799.01 37.34 798.02 37 797 C36.34 796.67 35.68 796.34 35 796 C33 795 33 795 32 792 C31.360625 791.690625 30.72125 791.38125 30.0625 791.0625 C27.49948282 789.74215782 27.2592663 788.5185326 26 786 C24.67479497 785.31731862 23.34187818 784.6492959 22 784 C21.67 783.01 21.34 782.02 21 781 C19.67393596 780.3189887 18.33901683 779.65517643 17 779 C15.36550337 777.55021195 13.78141475 776.04276785 12.234375 774.5 C11.34492187 773.613125 10.45546875 772.72625 9.5390625 771.8125 C8.15847656 770.4203125 8.15847656 770.4203125 6.75 769 C5.34621094 767.6078125 5.34621094 767.6078125 3.9140625 766.1875 C3.02976562 765.300625 2.14546875 764.41375 1.234375 763.5 C0.42194336 762.6853125 -0.39048828 761.870625 -1.22753906 761.03125 C-3 759 -3 759 -3 757 C-3.58265625 756.7421875 -4.1653125 756.484375 -4.765625 756.21875 C-7.1802903 754.90165983 -8.81740177 753.44911616 -10.75 751.5 C-11.36359375 750.8915625 -11.9771875 750.283125 -12.609375 749.65625 C-14 748 -14 748 -14 746 C-14.56203125 745.7628125 -15.1240625 745.525625 -15.703125 745.28125 C-18.51894042 743.71052303 -20.47955416 741.78528536 -22.75 739.5 C-23.94882812 738.30890625 -23.94882812 738.30890625 -25.171875 737.09375 C-27 735 -27 735 -27 733 C-27.58265625 732.7421875 -28.1653125 732.484375 -28.765625 732.21875 C-31.1802903 730.90165983 -32.81740177 729.44911616 -34.75 727.5 C-35.36359375 726.8915625 -35.9771875 726.283125 -36.609375 725.65625 C-38 724 -38 724 -38 722 C-38.639375 721.731875 -39.27875 721.46375 -39.9375 721.1875 C-42 720 -42 720 -43 717 C-43.556875 716.731875 -44.11375 716.46375 -44.6875 716.1875 C-48.65669627 714.14926408 -52.04818091 711.22079338 -53.82171631 707.08276367 C-54.41656375 704.89834195 -54.86743746 702.72725137 -55.2734375 700.5 C-55.52740295 699.27010597 -55.52740295 699.27010597 -55.78649902 698.0153656 C-56.14729027 696.25939858 -56.49828421 694.50139468 -56.840271 692.7416687 C-57.7496448 688.07911685 -58.74046395 683.43364201 -59.71875 678.78515625 C-59.91217987 677.85623062 -60.10560974 676.92730499 -60.30490112 675.9702301 C-66.99247568 644.00021937 -77.0539916 612.5571314 -91 583 C-91.42216797 582.10200684 -91.84433594 581.20401367 -92.27929688 580.27880859 C-104.94318063 553.60371811 -120.81141454 528.51047176 -136.67553711 503.6484375 C-155.68459037 473.8333282 -173.80805733 443.0134051 -181 408 C-181.22429687 406.96230469 -181.44859375 405.92460938 -181.6796875 404.85546875 C-192.26283095 346.0682815 -160.9351871 292.76644242 -129.60375977 245.90039062 C-86.24394375 181.01325276 -49.21283599 113.49067435 -18 42 C-17.53022736 40.92483124 -17.53022736 40.92483124 -17.05096436 39.82794189 C-11.26970333 26.59283719 -5.52019496 13.34665858 0 0 Z " fill="#000000" transform="translate(655,108)"/>
<path d="M0 0 C1.20970459 0.00523682 2.41940918 0.01047363 3.66577148 0.01586914 C4.97094727 0.0190918 6.27612305 0.02231445 7.62084961 0.02563477 C9.00952213 0.03399138 10.39819401 0.04245634 11.78686523 0.05102539 C13.17944179 0.05603873 14.57202005 0.06060193 15.96459961 0.06469727 C19.38456394 0.07653105 22.80444367 0.09301659 26.22436523 0.11352539 C26.87558353 2.77897703 27.52043684 5.44571595 28.16186523 8.11352539 C28.34426758 8.85731445 28.52666992 9.60110352 28.71459961 10.36743164 C45.311436 79.77238382 7.36480585 157.62239466 -27.89135742 215.07592773 C-32.09051976 221.84529517 -36.41966537 228.52240396 -40.82006836 235.16235352 C-100.69466568 324.06983375 -100.69466568 324.06983375 -107.77563477 428.11352539 C-99.939787 463.65551032 -82.33011117 494.93071371 -63.74243164 525.83520508 C-12.1438416 611.84139513 -12.1438416 611.84139513 -12.71313477 661.23852539 C-12.71990234 662.38708008 -12.71990234 662.38708008 -12.72680664 663.55883789 C-12.73837913 665.41043576 -12.75630321 667.26199227 -12.77563477 669.11352539 C-14.81683265 667.49757707 -16.81636414 665.82788719 -18.77563477 664.11352539 C-18.77563477 663.45352539 -18.77563477 662.79352539 -18.77563477 662.11352539 C-19.58436035 661.79158203 -19.58436035 661.79158203 -20.40942383 661.46313477 C-23.62633308 659.62831488 -26.04702731 657.12766921 -28.63500977 654.51977539 C-29.1842511 653.97244751 -29.73349243 653.42511963 -30.29937744 652.86120605 C-31.45489336 651.70704759 -32.60790162 650.55037372 -33.75854492 649.39135742 C-35.52636976 647.61278593 -37.30465607 645.84517776 -39.08422852 644.07836914 C-40.20596448 642.95531231 -41.32708027 641.83163563 -42.44750977 640.70727539 C-42.98180603 640.17702759 -43.51610229 639.64677979 -44.06658936 639.10046387 C-47.77563477 635.34346393 -47.77563477 635.34346393 -47.77563477 633.11352539 C-48.36757629 632.84624634 -48.95951782 632.57896729 -49.56939697 632.30358887 C-51.80929917 631.09536652 -53.27992025 629.86275608 -55.07543945 628.07250977 C-55.69578064 627.4584729 -56.31612183 626.84443604 -56.95526123 626.21179199 C-57.61270325 625.55030151 -58.27014526 624.88881104 -58.94750977 624.20727539 C-59.62992737 623.52677124 -60.31234497 622.84626709 -61.01544189 622.1451416 C-62.45342904 620.70851342 -63.88890169 619.26936454 -65.32202148 617.82788086 C-67.52440505 615.6147611 -69.73728409 613.41254067 -71.95141602 611.21118164 C-73.3465893 609.81468736 -74.74114238 608.41757312 -76.13500977 607.01977539 C-76.80054871 606.35828491 -77.46608765 605.69679443 -78.15179443 605.01525879 C-78.75952698 604.40122192 -79.36725952 603.78718506 -79.9934082 603.15454102 C-80.53205505 602.61430298 -81.0707019 602.07406494 -81.62567139 601.51745605 C-82.77563477 600.11352539 -82.77563477 600.11352539 -82.77563477 598.11352539 C-83.60884101 597.76718705 -83.60884101 597.76718705 -84.45887971 597.41385198 C-87.40788225 595.75866344 -89.44723443 593.69805744 -91.84371567 591.30830002 C-92.34302453 590.81309642 -92.8423334 590.31789282 -93.35677284 589.80768305 C-95.03597141 588.13983275 -96.70795178 586.46492864 -98.38006592 584.78997803 C-99.59166786 583.58354285 -100.80369865 582.37753823 -102.0161221 581.17192864 C-105.3522937 577.85190918 -108.68215151 574.52561904 -112.01099324 571.19825244 C-115.5997988 567.61314575 -119.19429035 564.0337475 -122.78797913 560.45353699 C-130.64637931 552.62231043 -138.49720897 544.78352356 -146.34643459 536.94310284 C-151.24470778 532.05035183 -156.14445493 527.15907875 -161.04447174 522.26807404 C-174.60372284 508.73320636 -188.16108107 495.19644898 -201.71152878 481.65276718 C-202.57889839 480.7858367 -203.44626801 479.91890622 -204.33992155 479.02570511 C-205.64412259 477.72215891 -205.64412259 477.72215891 -206.97467113 476.39227843 C-208.73661035 474.63122615 -210.49855266 472.87017697 -212.26049805 471.10913086 C-213.13448617 470.2355856 -214.00847429 469.36204033 -214.9089469 468.462024 C-229.08209691 454.29677595 -243.26870818 440.14509182 -257.46116135 425.99918661 C-272.02256963 411.48515279 -286.57275226 396.95994491 -301.11166024 382.42337155 C-309.27894363 374.25792435 -317.4510282 366.09741219 -325.63549042 357.9491806 C-332.60210845 351.01329334 -339.55845062 344.06730545 -346.50143638 337.10775843 C-350.04624304 333.55511409 -353.59579352 330.0075669 -357.15847206 326.47283745 C-360.41692023 323.2397198 -363.66133438 319.99318958 -366.89491847 316.73520961 C-368.06989264 315.5562957 -369.2500085 314.38248054 -370.43558618 313.21423063 C-372.04154513 311.63027593 -373.62805759 310.02910343 -375.21091843 308.42211533 C-376.54276267 307.09206235 -376.54276267 307.09206235 -377.90151286 305.73513961 C-380.18899835 302.53529201 -380.39824654 300.96745055 -379.77563477 297.11352539 C-378.57477593 295.16517425 -378.57477593 295.16517425 -376.85074234 293.44475937 C-376.19833077 292.77916811 -375.54591919 292.11357685 -374.87373757 291.42781615 C-374.14496777 290.71515916 -373.41619797 290.00250217 -372.66534424 289.26824951 C-371.90045866 288.49682625 -371.13557308 287.72540299 -370.34750915 286.93060327 C-367.77285864 284.34135084 -365.17727335 281.77415848 -362.58129883 279.20629883 C-360.73432028 277.35773911 -358.88864769 275.50787376 -357.04418945 273.65679932 C-352.54728925 269.14862811 -348.03460292 264.65658343 -343.51649359 260.16967937 C-338.25702663 254.94527352 -333.01369479 249.70479873 -327.77107713 244.46349409 C-318.41718706 235.11298084 -309.04924398 225.77667573 -299.6730957 216.44848633 C-290.57235692 207.3942641 -281.48075919 198.33099921 -272.3996582 189.25708008 C-271.84036465 188.69823206 -271.28107109 188.13938404 -270.70482925 187.56360123 C-269.57814614 186.43780331 -268.4514636 185.31200482 -267.32478164 184.18620576 C-266.76901121 183.63087446 -266.21324078 183.07554316 -265.64062881 182.50338364 C-265.08627581 181.9494626 -264.5319228 181.39554157 -263.96077122 180.82483505 C-255.31008701 172.18155218 -246.65175169 163.54593631 -237.99236138 154.911377 C-234.85266102 151.78054779 -231.71395883 148.64872191 -228.57594374 145.51620361 C-223.13321577 140.08316816 -217.68526895 134.65544181 -212.23153687 129.23345184 C-210.41898053 127.42995174 -208.60811243 125.62475315 -206.79903412 123.81776428 C-204.33524161 121.35745598 -201.86541349 118.90337469 -199.39385986 116.4508667 C-198.67401295 115.72928682 -197.95416604 115.00770694 -197.21250558 114.26426101 C-196.54966302 113.60910074 -195.88682045 112.95394046 -195.20389175 112.27892685 C-194.63431126 111.71183935 -194.06473076 111.14475185 -193.47789025 110.56047988 C-191.77563477 109.11352539 -191.77563477 109.11352539 -189.6941812 108.0797503 C-186.97307068 106.70933533 -185.64126877 104.4766618 -183.77563477 102.11352539 C-183.11563477 102.11352539 -182.45563477 102.11352539 -181.77563477 102.11352539 C-181.44563477 101.12352539 -181.11563477 100.13352539 -180.77563477 99.11352539 C-180.11563477 99.11352539 -179.45563477 99.11352539 -178.77563477 99.11352539 C-178.77563477 98.45352539 -178.77563477 97.79352539 -178.77563477 97.11352539 C-174.47330918 92.34608353 -174.47330918 92.34608353 -170.77563477 91.11352539 C-170.77563477 90.45352539 -170.77563477 89.79352539 -170.77563477 89.11352539 C-169.09594727 87.71118164 -169.09594727 87.71118164 -166.90063477 86.17602539 C-164.10067442 84.21404601 -162.71500715 83.02258396 -160.77563477 80.11352539 C-160.06020508 79.68813477 -159.34477539 79.26274414 -158.60766602 78.82446289 C-154.13112833 76.12001668 -150.44000975 72.5219883 -146.56665039 69.02758789 C-142.70432107 65.60496991 -138.82886369 62.7480124 -134.35302734 60.16967773 C-132.60745402 59.18916693 -132.60745402 59.18916693 -131.77563477 57.11352539 C-130.06501982 56.12663215 -128.35190301 55.14347134 -126.61938477 54.19555664 C-124.14171215 52.74149877 -122.00939447 50.91294293 -119.77563477 49.11352539 C-118.29063477 48.61852539 -118.29063477 48.61852539 -116.77563477 48.11352539 C-116.44563477 47.45352539 -116.11563477 46.79352539 -115.77563477 46.11352539 C-113.77563477 45.11352539 -111.77563477 44.11352539 -109.77563477 43.11352539 C-109.44563477 42.45352539 -109.11563477 41.79352539 -108.77563477 41.11352539 C-106.49547616 39.99098577 -104.1620181 39.06750345 -101.80688477 38.11352539 C-99.61003221 37.2864259 -99.61003221 37.2864259 -98.77563477 35.11352539 C-96.88151131 34.12556066 -94.98241892 33.14575255 -93.05737305 32.21948242 C-90.84858988 31.14888669 -88.6842471 30.02044515 -86.52172852 28.85961914 C-85.81209961 28.47999023 -85.1024707 28.10036133 -84.37133789 27.70922852 C-82.92787474 26.93459173 -81.48516992 26.15854029 -80.04321289 25.38110352 C-68.30885453 19.11352539 -68.30885453 19.11352539 -62.77563477 19.11352539 C-62.77563477 18.45352539 -62.77563477 17.79352539 -62.77563477 17.11352539 C-61.34009451 16.60792631 -59.90211457 16.10925049 -58.46313477 15.61352539 C-57.66262695 15.33508789 -56.86211914 15.05665039 -56.03735352 14.76977539 C-53.77563477 14.11352539 -53.77563477 14.11352539 -50.77563477 14.11352539 C-50.77563477 13.45352539 -50.77563477 12.79352539 -50.77563477 12.11352539 C-49.54586914 11.77579102 -48.31610352 11.43805664 -47.04907227 11.09008789 C-45.41623674 10.63965051 -43.78342552 10.18912501 -42.15063477 9.73852539 C-40.93827148 9.40594727 -40.93827148 9.40594727 -39.70141602 9.06665039 C-36.32809223 8.13418691 -32.99529233 7.18933641 -29.68579102 6.04711914 C-26.11979587 4.90312875 -22.51704679 4.2088441 -18.83813477 3.55102539 C-18.16073242 3.4253418 -17.48333008 3.2996582 -16.78540039 3.17016602 C-13.4711316 2.56323856 -10.17589681 2.03328295 -6.83422852 1.58618164 C-3.59193382 1.08513738 -3.19495095 0.13067571 0 0 Z " fill="#000000" transform="translate(560.775634765625,92.886474609375)"/>
<path d="" fill="#000000" transform="translate(0,0)"/>
</svg>
